<?xml version='1.0' encoding='utf-8'?>
<svg xmlns="http://www.w3.org/2000/svg" width="1920" height="1080" viewBox="0 0 1920 1080" data-theme="dark">
  <style>
        @font-face {
            font-family: 'Inter';
            src: url('assets/fonts/Inter-Regular.ttf') format('truetype');
            font-weight: 400;
            font-style: normal;
            font-display: swap;
        }
        @font-face {
            font-family: 'Inter';
            src: url('assets/fonts/Inter-Bold.ttf') format('truetype');
            font-weight: 600;
            font-style: normal;
            font-display: swap;
        }
        @font-face {
            font-family: 'Inter';
            src: url('assets/fonts/Inter-Bold.ttf') format('truetype');
            font-weight: 800;
            font-style: normal;
            font-display: swap;
        }
        
:root {
    --background: #0f172a;
    --panel: #1e293b;
    --primary-text: #f1f5f9;
    --muted-text: #94a3b8;
    --inverse-text: #0f172a;
    --border: #334155;
    --shadow-color: #000000;
    --icon-pad-bg: #1e293b;
    --art-glow: #7dd3fc;
    --art-glow-opacity: 0.18;
    --art-sheen: #ffffff;
    --art-sheen-opacity: 0.18;
    --art-shadow: #000000;
    --art-shadow-opacity: 0.28;
    --art-muted-line: #64748b;
    --art-panel-tint: #1e293b;
    --font-family: 'Inter', 'Segoe UI', 'Kalam', Roboto, Helvetica, Arial, sans-serif;
    --radius-xl: 16px;
    --font-family-headline: 'Inter', 'Segoe UI', 'Kalam', Roboto, Helvetica, Arial, sans-serif;
    --font-family-body: 'Inter', 'Segoe UI', 'Kalam', Roboto, Helvetica, Arial, sans-serif;
    --font-heading: 'Inter', 'Segoe UI', 'Kalam', Roboto, Helvetica, Arial, sans-serif;
    --font-body: 'Inter', 'Segoe UI', 'Kalam', Roboto, Helvetica, Arial, sans-serif;
    --font-size-h1: 56px;
    --font-size-h2: 40px;
    --font-size-h3: 28px;
    --font-size-body: 24px;
    --font-size-caption: 18px;
    --secondary-text: var(--muted-text);
    --panel-border: var(--border);
    --font-weight-normal: 400;
    --font-weight-medium: 500;
    --font-weight-semibold: 600;
    --font-weight-bold: 700;
    --spacing-gutter-pct: 0.07;
    --spacing-top-pct: 0.15;
    --spacing-bottom-pct: 0.07;
    --spacing-title-y-pct: 0.055;
    --accent-1: #fbbf24;
    --accent-2: #fb923c;
    --accent-3: #f87171;
    --accent-4: #a3e635;
    --accent-5: #4ade80;
    --accent-6: #d4a574;
}
:root[data-theme="dark"] {
    --background: #0f172a;
    --panel: #1e293b;
    --primary-text: #f1f5f9;
    --muted-text: #94a3b8;
    --inverse-text: #0f172a;
    --border: #334155;
    --shadow-color: #000000;
    --icon-pad-bg: #1e293b;
    --art-glow: #7dd3fc;
    --art-glow-opacity: 0.18;
    --art-sheen: #ffffff;
    --art-sheen-opacity: 0.18;
    --art-shadow: #000000;
    --art-shadow-opacity: 0.28;
    --art-muted-line: #64748b;
    --art-panel-tint: #1e293b;
    --accent-1: #fbbf24;
    --accent-2: #fb923c;
    --accent-3: #f87171;
    --accent-4: #a3e635;
    --accent-5: #4ade80;
    --accent-6: #d4a574;
}
:root[data-theme="light"] {
    --background: #f8fafc;
    --panel: #ffffff;
    --primary-text: #0f172a;
    --muted-text: #64748b;
    --inverse-text: #ffffff;
    --border: #e2e8f0;
    --shadow-color: #000000;
    --icon-pad-bg: #1e293b;
    --art-glow: #0891b2;
    --art-glow-opacity: 0.10;
    --art-sheen: #ffffff;
    --art-sheen-opacity: 0.34;
    --art-shadow: #0f172a;
    --art-shadow-opacity: 0.14;
    --art-muted-line: #94a3b8;
    --art-panel-tint: #f1f5f9;
    --accent-1: #d97706;
    --accent-2: #ea580c;
    --accent-3: #dc2626;
    --accent-4: #65a30d;
    --accent-5: #16a34a;
    --accent-6: #92400e;
}</style>
  <rect x="0" y="0" width="1.92E+3" height="1.08E+3" fill="#252a34" stroke="none" id="programmatic_background"/>
  <line id="HEADER_DECOR" x1="960.0" x2="1080.0" y1="135.0" y2="135.0" stroke="var(--accent-1)" stroke-width="6" stroke-linecap="round"/>
  <defs>
    <pattern id="svg37bea9dd-napkin-hatch" patternUnits="userSpaceOnUse" width="12" height="12">
      <path d="M -3 12 L 12 -3 M 0 15 L 15 0" fill="none" stroke="var(--primary-text)" stroke-width="1" stroke-opacity="0.05"/>
    </pattern>
    <filter id="svg37bea9dd-shadow" x="-30%" y="-30%" width="160%" height="160%">
      <feDropShadow dx="0" dy="2" stdDeviation="3" flood-color="#000000" flood-opacity="0.08"/>
      <feDropShadow dx="0" dy="6" stdDeviation="10" flood-color="#000000" flood-opacity="0.12"/>
    </filter>
    <radialGradient id="svg37bea9dd-universal-edge-vignette" cx="50%" cy="50%" r="72%">
      <stop offset="0%" stop-color="var(--background)" stop-opacity="0"/>
      <stop offset="72%" stop-color="var(--background)" stop-opacity="0.12"/>
      <stop offset="100%" stop-color="var(--primary-text)" stop-opacity="0.08"/>
    </radialGradient>
    <linearGradient id="svg37bea9dd-universal-surface-sheen" x1="0%" y1="0%" x2="100%" y2="100%">
      <stop offset="0%" stop-color="var(--art-sheen)" stop-opacity="var(--art-sheen-opacity)"/>
      <stop offset="46%" stop-color="var(--art-sheen)" stop-opacity="0.035"/>
      <stop offset="100%" stop-color="var(--art-panel-tint)" stop-opacity="0.14"/>
    </linearGradient>
    <radialGradient id="svg37bea9dd-universal-icon-aura" cx="50%" cy="42%" r="64%">
      <stop offset="0%" stop-color="var(--art-glow)" stop-opacity="var(--art-glow-opacity)"/>
      <stop offset="100%" stop-color="var(--background)" stop-opacity="0"/>
    </radialGradient>
    <linearGradient id="svg37bea9dd-fact-card-sheen" x1="0%" y1="0%" x2="100%" y2="100%">
      <stop offset="0%" stop-color="var(--inverse-text)" stop-opacity="0.18"/>
      <stop offset="54%" stop-color="var(--inverse-text)" stop-opacity="0.04"/>
      <stop offset="100%" stop-color="var(--background)" stop-opacity="0.14"/>
    </linearGradient>
    <radialGradient id="svg37bea9dd-fact-icon-glow" cx="50%" cy="42%" r="62%">
      <stop offset="0%" stop-color="var(--inverse-text)" stop-opacity="0.22"/>
      <stop offset="100%" stop-color="var(--background)" stop-opacity="0"/>
    </radialGradient>
    <filter id="svg37bea9dd-text-glow" x="-20%" y="-20%" width="140%" height="140%">
      <feDropShadow dx="0" dy="0" stdDeviation="2" flood-color="#000000" flood-opacity="0.4"/>
    </filter>
    <marker id="svg37bea9dd-arrowhead" markerWidth="10" markerHeight="7" refX="9" refY="3.5" orient="auto" markerUnits="strokeWidth">
      <polygon points="0 0, 10 3.5, 0 7" fill="var(--muted-text)" opacity="0.6"/>
    </marker>
  </defs>
  <rect width="100%" height="100%" fill="var(--background)" id="CANVAS_BG"/>
  <rect width="100%" height="100%" fill="url(#svg37bea9dd-napkin-hatch)"/>
  <rect id="UNIVERSAL_EDGE_VIGNETTE" width="100%" height="100%" fill="url(#svg37bea9dd-universal-edge-vignette)" opacity="0.62"/>
  <line x1="960" y1="178" x2="960" y2="986" stroke="var(--muted-text)" stroke-width="5" stroke-opacity="0.10" stroke-linecap="round"/>
  <path d="M 360 178 C 620 152 1300 152 1560 178" fill="none" stroke="var(--primary-text)" stroke-width="2" stroke-opacity="0.12" stroke-linecap="round"/>
  <text id="TITLE" x="960.0" y="59" font-size="72" font-weight="800" fill="#f1f5f9" style="font-size: 60px; font-family: Inter, Segoe UI, Kalam, Roboto, Helvetica, Arial, sans-serif; font-weight: 700; letter-spacing:-1.2px;" text-anchor="middle" data-final-font-size="60">
    <tspan x="960.0" dy="68.00px">Geography of the Guérande Sightings</tspan>
  </text>
  <rect id="TITLE_FRAME" x="134" y="59" width="1652" height="103" fill="none"/>
  <g transform="translate(960.0, 255.0)">
    <rect id="ITEM_1_BG" x="-600" y="-40" width="1200" height="126" rx="24" fill="var(--accent-6)" stroke="var(--accent-1)" filter="url(#svg37bea9dd-shadow)" stroke-width="3" fill-opacity="0.4"/>
    <g transform="translate(-480.0, 0.0)">
      <circle r="45" fill="var(--background)" opacity="0.3"/>
      <circle id="ITEM_1_PAD" cx="0" cy="0" r="38" fill="var(--icon-pad-bg)" stroke="var(--primary-text)" opacity="0.9" fill-opacity="0.9" stroke-width="2"/>
      <circle id="ITEM_1_PAD_INNER" cx="0" cy="0" r="29.64" fill="var(--accent-6)" fill-opacity="0.22"/>
      <circle cx="0" cy="0" r="30" fill="none" stroke="var(--accent-1)" stroke-width="3" stroke-dasharray="6 4"/>
      <g id="ITEM_1_ICON" transform="translate(-31, -31)" data-icon-size="62" stroke-dasharray="6 4">
        <g transform="translate(-4.4285714285714315,-4.428571428571429) scale(0.2767857142857143)" vector-effect="non-scaling-stroke" stroke-width="2.46" stroke-linecap="round" stroke-linejoin="round" stroke-opacity="1.0">
          <line x1="128" y1="48" x2="128" y2="24" fill="none" stroke="#f1f5f9" vector-effect="non-scaling-stroke"/>
          <line x1="128" y1="168" x2="128" y2="88" fill="none" stroke="#f1f5f9" vector-effect="non-scaling-stroke"/>
          <path d="M224,152c0,56-96,80-96,80s-96-24-96-80V125.77a8,8,0,0,1,5.47-7.59L128,88l90.53,30.18a8,8,0,0,1,5.47,7.59Z" fill="none" stroke="#f1f5f9" vector-effect="non-scaling-stroke"/>
          <path d="M56,112V56a8,8,0,0,1,8-8H192a8,8,0,0,1,8,8v56" fill="none" stroke="#f1f5f9" vector-effect="non-scaling-stroke"/>
        </g>
      </g>
    </g>
    <g transform="translate(-330, -30)">
      <text id="ITEM_1_HEAD" text-anchor="start" font-weight="bold" font-size="27" fill="var(--primary-text)" x="0.0" y="-10.0" data-bg-id="ITEM_1_BG" fill-opacity="1.0" stroke="none" style="font-size: 30px; font-family: Inter, Segoe UI, Kalam, Roboto, Helvetica, Arial, sans-serif; font-weight: 700; letter-spacing:-0.4px;" data-final-font-size="30">
        <tspan x="0.0" dy="27.25px">Mindin Ferry</tspan>
      </text>
      <rect id="ITEM_1_HEAD_FRAME" x="0" y="-10" width="846" height="38" fill="none"/>
      <text id="ITEM_1_BODY" text-anchor="start" font-size="19" fill="var(--primary-text)" x="0.0" y="20.0" data-bg-id="ITEM_1_BG" style="font-size: 26px; font-family: Inter, Segoe UI, Kalam, Roboto, Helvetica, Arial, sans-serif; font-weight: 400;" data-final-font-size="26">
        <tspan x="0.0" dy="29.62px">Passengers reported a bright trail during transit</tspan>
      </text>
      <rect id="ITEM_1_BODY_FRAME" x="0" y="20" width="846" height="74" fill="none"/>
    </g>
  </g>
  <g transform="translate(960.0, 390.0)">
    <rect id="ITEM_2_BG" x="-600" y="-40" width="1200" height="126" rx="24" fill="var(--accent-1)" stroke="var(--accent-2)" filter="url(#svg37bea9dd-shadow)" stroke-width="3" fill-opacity="0.4"/>
    <g transform="translate(-480.0, 0.0)">
      <circle r="45" fill="var(--background)" opacity="0.3"/>
      <circle id="ITEM_2_PAD" cx="0" cy="0" r="38" fill="var(--icon-pad-bg)" stroke="var(--primary-text)" opacity="0.9" fill-opacity="0.9" stroke-width="2"/>
      <circle id="ITEM_2_PAD_INNER" cx="0" cy="0" r="29.64" fill="var(--accent-1)" fill-opacity="0.22"/>
      <circle cx="0" cy="0" r="30" fill="none" stroke="var(--accent-1)" stroke-width="3" stroke-dasharray="6 4"/>
      <g id="ITEM_2_ICON" transform="translate(-31, -31)" data-icon-size="62" stroke-dasharray="6 4">
        <g transform="translate(-4.428571428571429,-4.428571428571432) scale(0.2767857142857143)" vector-effect="non-scaling-stroke" stroke-width="2.46" stroke-linecap="round" stroke-linejoin="round" stroke-opacity="1.0">
          <line x1="64" y1="56" x2="64" y2="200" fill="none" stroke="#f1f5f9" vector-effect="non-scaling-stroke"/>
          <line x1="192" y1="56" x2="192" y2="200" fill="none" stroke="#f1f5f9" vector-effect="non-scaling-stroke"/>
          <path d="M24,115.35A64,64,0,0,0,64,56a64,64,0,0,0,128,0,64,64,0,0,0,40,59.35" fill="none" stroke="#f1f5f9" vector-effect="non-scaling-stroke"/>
          <line x1="152" y1="115.35" x2="152" y2="168" fill="none" stroke="#f1f5f9" vector-effect="non-scaling-stroke"/>
          <line x1="104" y1="115.35" x2="104" y2="168" fill="none" stroke="#f1f5f9" vector-effect="non-scaling-stroke"/>
          <line x1="24" y1="168" x2="232" y2="168" fill="none" stroke="#f1f5f9" vector-effect="non-scaling-stroke"/>
        </g>
      </g>
    </g>
    <g transform="translate(-330, -30)">
      <text id="ITEM_2_HEAD" text-anchor="start" font-weight="bold" font-size="27" fill="var(--primary-text)" x="0.0" y="-10.0" data-bg-id="ITEM_2_BG" fill-opacity="1.0" stroke="none" style="font-size: 30px; font-family: Inter, Segoe UI, Kalam, Roboto, Helvetica, Arial, sans-serif; font-weight: 700; letter-spacing:-0.4px;" data-final-font-size="30">
        <tspan x="0.0" dy="27.25px">Le Pouliguen Bridge</tspan>
      </text>
      <rect id="ITEM_2_HEAD_FRAME" x="0" y="-10" width="846" height="38" fill="none"/>
      <text id="ITEM_2_BODY" text-anchor="start" font-size="19" fill="var(--primary-text)" x="0.0" y="20.0" data-bg-id="ITEM_2_BG" style="font-size: 26px; font-family: Inter, Segoe UI, Kalam, Roboto, Helvetica, Arial, sans-serif; font-weight: 400;" data-final-font-size="26">
        <tspan x="0.0" dy="29.62px">Customers saw an orange object moving toward Careil</tspan>
      </text>
      <rect id="ITEM_2_BODY_FRAME" x="0" y="20" width="846" height="74" fill="none"/>
    </g>
  </g>
  <g transform="translate(960.0, 525.0)">
    <rect id="ITEM_3_BG" x="-600" y="-40" width="1200" height="126" rx="24" fill="var(--accent-2)" stroke="var(--accent-3)" filter="url(#svg37bea9dd-shadow)" stroke-width="3" fill-opacity="0.4"/>
    <g transform="translate(-480.0, 0.0)">
      <circle r="45" fill="var(--background)" opacity="0.3"/>
      <circle id="ITEM_3_PAD" cx="0" cy="0" r="38" fill="var(--icon-pad-bg)" stroke="var(--primary-text)" opacity="0.9" fill-opacity="0.9" stroke-width="2"/>
      <circle id="ITEM_3_PAD_INNER" cx="0" cy="0" r="29.64" fill="var(--accent-2)" fill-opacity="0.22"/>
      <circle cx="0" cy="0" r="30" fill="none" stroke="var(--accent-2)" stroke-width="3" stroke-dasharray="6 4"/>
      <g id="ITEM_3_ICON" transform="translate(-31, -31)" data-icon-size="62" stroke-dasharray="6 4">
        <g transform="translate(-10.333333333333334,-10.333333333333336) scale(3.4444444444444446)" vector-effect="non-scaling-stroke" stroke-width="2.46" stroke-linecap="round" stroke-linejoin="round" stroke-opacity="1.0">
          <path d="M4 19l4 -14" vector-effect="non-scaling-stroke" fill="none" stroke="#f1f5f9"/>
          <path d="M16 5l4 14" vector-effect="non-scaling-stroke" fill="none" stroke="#f1f5f9"/>
          <path d="M12 8v-2" vector-effect="non-scaling-stroke" fill="none" stroke="#f1f5f9"/>
          <path d="M12 13v-2" vector-effect="non-scaling-stroke" fill="none" stroke="#f1f5f9"/>
          <path d="M12 18v-2" vector-effect="non-scaling-stroke" fill="none" stroke="#f1f5f9"/>
        </g>
      </g>
    </g>
    <g transform="translate(-330, -30)">
      <text id="ITEM_3_HEAD" text-anchor="start" font-weight="bold" font-size="27" fill="var(--primary-text)" x="0.0" y="-10.0" data-bg-id="ITEM_3_BG" fill-opacity="1.0" stroke="none" style="font-size: 30px; font-family: Inter, Segoe UI, Kalam, Roboto, Helvetica, Arial, sans-serif; font-weight: 700; letter-spacing:-0.4px;" data-final-font-size="30">
        <tspan x="0.0" dy="27.25px">Grande Côte</tspan>
      </text>
      <rect id="ITEM_3_HEAD_FRAME" x="0" y="-10" width="846" height="38" fill="none"/>
      <text id="ITEM_3_BODY" text-anchor="start" font-size="19" fill="var(--primary-text)" x="0.0" y="20.0" data-bg-id="ITEM_3_BG" style="font-size: 26px; font-family: Inter, Segoe UI, Kalam, Roboto, Helvetica, Arial, sans-serif; font-weight: 400;" data-final-font-size="26">
        <tspan x="0.0" dy="29.62px">Gendarmes on patrol witnessed the celestial vehicle</tspan>
      </text>
      <rect id="ITEM_3_BODY_FRAME" x="0" y="20" width="846" height="74" fill="none"/>
    </g>
  </g>
  <g transform="translate(960.0, 660.0)">
    <rect id="ITEM_4_BG" x="-600" y="-40" width="1200" height="126" rx="24" fill="var(--accent-3)" stroke="var(--accent-4)" filter="url(#svg37bea9dd-shadow)" stroke-width="3" fill-opacity="0.4"/>
    <g transform="translate(-480.0, 0.0)">
      <circle r="45" fill="var(--background)" opacity="0.3"/>
      <circle id="ITEM_4_PAD" cx="0" cy="0" r="38" fill="var(--icon-pad-bg)" stroke="var(--primary-text)" opacity="0.9" fill-opacity="0.9" stroke-width="2"/>
      <circle id="ITEM_4_PAD_INNER" cx="0" cy="0" r="29.64" fill="var(--accent-3)" fill-opacity="0.22"/>
      <circle cx="0" cy="0" r="30" fill="none" stroke="var(--accent-3)" stroke-width="3" stroke-dasharray="6 4"/>
      <g id="ITEM_4_ICON" transform="translate(-31, -31)" data-icon-size="62" stroke-dasharray="6 4">
        <g transform="translate(-4.3130434782608695,-2.1565217391304334) scale(2.8753623188405797)" vector-effect="non-scaling-stroke" stroke-width="2.46" stroke-linecap="round" stroke-linejoin="round" stroke-opacity="1.0">
          <path d="M3.59 7h8.82a1 1 0 0 1 .902 1.433l-1.44 3a1 1 0 0 1 -.901 .567h-5.942a1 1 0 0 1 -.901 -.567l-1.44 -3a1 1 0 0 1 .901 -1.433" vector-effect="non-scaling-stroke" fill="none" stroke="#f1f5f9"/>
          <path d="M6 7l-.78 -2.342a.5 .5 0 0 1 .473 -.658h4.612a.5 .5 0 0 1 .475 .658l-.78 2.342" vector-effect="non-scaling-stroke" fill="none" stroke="#f1f5f9"/>
          <path d="M8 2v2" vector-effect="non-scaling-stroke" fill="none" stroke="#f1f5f9"/>
          <path d="M6 12v9h4v-9" vector-effect="non-scaling-stroke" fill="none" stroke="#f1f5f9"/>
          <path d="M3 21h18" vector-effect="non-scaling-stroke" fill="none" stroke="#f1f5f9"/>
          <path d="M22 5h-6l-1 -1" vector-effect="non-scaling-stroke" fill="none" stroke="#f1f5f9"/>
          <path d="M18 3l2 2l-2 2" vector-effect="non-scaling-stroke" fill="none" stroke="#f1f5f9"/>
          <path d="M10 17h7a2 2 0 0 1 2 2v2" vector-effect="non-scaling-stroke" fill="none" stroke="#f1f5f9"/>
        </g>
      </g>
    </g>
    <g transform="translate(-330, -30)">
      <text id="ITEM_4_HEAD" text-anchor="start" font-weight="bold" font-size="27" fill="var(--primary-text)" x="0.0" y="-10.0" data-bg-id="ITEM_4_BG" fill-opacity="1.0" stroke="none" style="font-size: 30px; font-family: Inter, Segoe UI, Kalam, Roboto, Helvetica, Arial, sans-serif; font-weight: 700; letter-spacing:-0.4px;" data-final-font-size="30">
        <tspan x="0.0" dy="27.25px">Gron Airfield</tspan>
      </text>
      <rect id="ITEM_4_HEAD_FRAME" x="0" y="-10" width="846" height="38" fill="none"/>
      <text id="ITEM_4_BODY" text-anchor="start" font-size="19" fill="var(--primary-text)" x="0.0" y="20.0" data-bg-id="ITEM_4_BG" style="font-size: 26px; font-family: Inter, Segoe UI, Kalam, Roboto, Helvetica, Arial, sans-serif; font-weight: 400;" data-final-font-size="26">
        <tspan x="0.0" dy="29.62px">Proximity to aviation logistics fueled local speculation</tspan>
      </text>
      <rect id="ITEM_4_BODY_FRAME" x="0" y="20" width="846" height="74" fill="none"/>
    </g>
  </g>
  <g transform="translate(960.0, 795.0)">
    <rect id="ITEM_5_BG" x="-600" y="-40" width="1200" height="126" rx="24" fill="var(--accent-4)" stroke="var(--accent-5)" filter="url(#svg37bea9dd-shadow)" stroke-width="3" fill-opacity="0.4"/>
    <g transform="translate(-480.0, 0.0)">
      <circle r="45" fill="var(--background)" opacity="0.3"/>
      <circle id="ITEM_5_PAD" cx="0" cy="0" r="38" fill="var(--icon-pad-bg)" stroke="var(--primary-text)" opacity="0.9" fill-opacity="0.9" stroke-width="2"/>
      <circle id="ITEM_5_PAD_INNER" cx="0" cy="0" r="29.64" fill="var(--accent-4)" fill-opacity="0.22"/>
      <circle cx="0" cy="0" r="30" fill="none" stroke="var(--accent-4)" stroke-width="3" stroke-dasharray="6 4"/>
      <g id="ITEM_5_ICON" transform="translate(-31, -31)" data-icon-size="62" stroke-dasharray="6 4">
        <g transform="translate(-1.7933884297520626,-2.5619834710743765) scale(0.128099173553719)" vector-effect="non-scaling-stroke" fill="#f1f5f9" fill-opacity="1.0" stroke="none">
          <path fill="#f1f5f9" d="M199.188 19.97a9.5 9.5 0 0 0-8.407 4.843a907 907 0 0 0-10.843 19.156c-6.34-1.118-12.595-.258-16.406 3.53c-24.12 23.98-59.702 101.133-45.31 111.688c1.968 1.444 4.086 2.64 6.31 3.656c-16.64 42.836-30.184 86.292-40.124 128.562c-1.928-65.01-14.337-127.164-62.22-162.937c44.087 58.265 48.88 155.865 41.877 236.405c-11.69.81-23.34 1.66-34.97 2.53l1.407 18.94a6142 6142 0 0 1 31.656-2.283c-5.404 47.895-14.473 87.508-20.718 105.47l28.28-7.782l19.844 3.906c3.195-33.745 7.683-68.574 16.47-104.437c104.756-6.35 212.06-8.943 325.124-.814c9.21 20.087 7.668 38.25 2.563 64.156c-.69-30.596-32.682-59.164-127.25-57.718c-37.285.583-99.973 24.92-93.345 61.594c10.04 55.48 93.935 63.74 164.875 37.75l-32.78-43.72l76.467 37.75c7.045-10.18 11.56-21.598 12-32.843c14.556 1.83 29.126 3.61 43.625 5.875c20.6-36.8 25.25-154.36-88-314.47c39.61 88.105 71.88 190.382 63.157 224.22c-2.253-.186-4.504-.385-6.75-.563c-28.424-38.034-94.285-80.812-127.814-97.562C370.742 309.23 401.776 337.56 419 360.53c-38.743-2.512-76.81-3.813-114.313-4.155c-66.03-.6-130.31 1.732-193.5 5.47c14.246-49.464 37.544-100.834 77.75-153.97c-51.342 38.358-77.508 85.502-95.406 134.72c9.764-55.987 26.784-116.065 49.69-174.908c1.743.234 3.47.45 5.186.625c23.065 2.38 49.024-68.143 52.688-105.343c.375-3.812-1.312-7.414-4.188-10.44c3.37-6.11 6.79-12.172 10.28-18.155a9.5 9.5 0 0 0-8-14.406z" vector-effect="non-scaling-stroke" stroke="none"/>
        </g>
      </g>
    </g>
    <g transform="translate(-330, -30)">
      <text id="ITEM_5_HEAD" text-anchor="start" font-weight="bold" font-size="27" fill="var(--primary-text)" x="0.0" y="-10.0" data-bg-id="ITEM_5_BG" fill-opacity="1.0" stroke="none" style="font-size: 30px; font-family: Inter, Segoe UI, Kalam, Roboto, Helvetica, Arial, sans-serif; font-weight: 700; letter-spacing:-0.4px;" data-final-font-size="30">
        <tspan x="0.0" dy="27.25px">Belon Marsh</tspan>
      </text>
      <rect id="ITEM_5_HEAD_FRAME" x="0" y="-10" width="846" height="38" fill="none"/>
      <text id="ITEM_5_BODY" text-anchor="start" font-size="19" fill="var(--primary-text)" x="0.0" y="20.0" data-bg-id="ITEM_5_BG" style="font-size: 26px; font-family: Inter, Segoe UI, Kalam, Roboto, Helvetica, Arial, sans-serif; font-weight: 400;" data-final-font-size="26">
        <tspan x="0.0" dy="29.62px">Workers and residents reported the strange glow</tspan>
      </text>
      <rect id="ITEM_5_BODY_FRAME" x="0" y="20" width="846" height="74" fill="none"/>
    </g>
  </g>
  <g transform="translate(960.0, 930.0)">
    <rect id="ITEM_6_BG" x="-600" y="-40" width="1200" height="126" rx="24" fill="var(--accent-5)" stroke="var(--accent-6)" filter="url(#svg37bea9dd-shadow)" stroke-width="3" fill-opacity="0.4"/>
    <g transform="translate(-480.0, 0.0)">
      <circle r="45" fill="var(--background)" opacity="0.3"/>
      <circle id="ITEM_6_PAD" cx="0" cy="0" r="38" fill="var(--icon-pad-bg)" stroke="var(--primary-text)" opacity="0.9" fill-opacity="0.9" stroke-width="2"/>
      <circle id="ITEM_6_PAD_INNER" cx="0" cy="0" r="29.64" fill="var(--accent-5)" fill-opacity="0.22"/>
      <circle cx="0" cy="0" r="30" fill="none" stroke="var(--accent-5)" stroke-width="3" stroke-dasharray="6 4"/>
      <g id="ITEM_6_ICON" transform="translate(-31, -31)" data-icon-size="62" stroke-dasharray="6 4">
        <g transform="translate(-4.428571428571429,-3.3214285714285747) scale(2.2142857142857144)">
          <path fill-rule="evenodd" clip-rule="evenodd" d="M10 8.83354V3.52275C10 3.23233 9.75879 3 9.46734 3H6.54271C6.24121 3 6 3.23233 6 3.52275V12.1687L5 13.0025V29.0025H27V14.0025L16.07 3.77246L10 8.83354Z" fill="#F3C07B"/>
          <path d="M15.92 27.0025H8.08C8.04 27.0025 8 26.9625 8 26.9225V16.3925C8 15.6425 8.61 15.0325 9.36 15.0325H14.65C15.4 15.0325 16.01 15.6425 16.01 16.3925V26.9225C16 26.9625 15.96 27.0025 15.92 27.0025Z" fill="#8C5543"/>
          <path d="M14.5 21.0024C14.7761 21.0024 15 20.7786 15 20.5024C15 20.2263 14.7761 20.0024 14.5 20.0024C14.2239 20.0024 14 20.2263 14 20.5024C14 20.7786 14.2239 21.0024 14.5 21.0024Z" fill="#402A32"/>
          <path d="M15.96 28.0024H8C7.45 28.0024 7 27.5524 7 27.0024C7 26.4524 7.45 26.0024 8 26.0024H15.96C16.51 26.0024 16.96 26.4524 16.96 27.0024C16.96 27.5524 16.51 28.0024 15.96 28.0024Z" fill="#D3D3D3"/>
          <path d="M30 29.0024H2V28.9124C2 27.8524 2.85 27.0024 3.91 27.0024H28.09C29.14 27.0024 30 27.8524 30 28.9124V29.0024Z" fill="#00F397"/>
          <path d="M16.88 2.3525L29.64 14.9225C30.12 15.3925 30.12 16.1525 29.64 16.6125C29.17 17.0825 28.4 17.0825 27.92 16.6125L16.02 4.8925L4.08 16.6525C3.61 17.1225 2.84 17.1225 2.36 16.6525C1.88 16.1825 1.88 15.4225 2.36 14.9525L15.16 2.3525C15.63 1.8825 16.4 1.8825 16.88 2.3525Z" fill="#F8312F"/>
          <path d="M23.14 21.0024H18.86C18.38 21.0024 18 20.6224 18 20.1424V15.8624C18 15.3924 18.38 15.0024 18.86 15.0024H23.14C23.61 15.0024 24 15.3824 24 15.8624V20.1424C24 20.6224 23.62 21.0024 23.14 21.0024Z" fill="#83CBFF"/>
        </g>
      </g>
    </g>
    <g transform="translate(-330, -30)">
      <text id="ITEM_6_HEAD" text-anchor="start" font-weight="bold" font-size="27" fill="var(--primary-text)" x="0.0" y="-10.0" data-bg-id="ITEM_6_BG" fill-opacity="1.0" stroke="none" style="font-size: 30px; font-family: Inter, Segoe UI, Kalam, Roboto, Helvetica, Arial, sans-serif; font-weight: 700; letter-spacing:-0.4px;" data-final-font-size="30">
        <tspan x="0.0" dy="27.25px">Coastal Towns</tspan>
      </text>
      <rect id="ITEM_6_HEAD_FRAME" x="0" y="-10" width="846" height="38" fill="none"/>
      <text id="ITEM_6_BODY" text-anchor="start" font-size="19" fill="var(--primary-text)" x="0.0" y="20.0" data-bg-id="ITEM_6_BG" style="font-size: 26px; font-family: Inter, Segoe UI, Kalam, Roboto, Helvetica, Arial, sans-serif; font-weight: 400;" data-final-font-size="26">
        <tspan x="0.0" dy="29.62px">Wide distribution across Saint-Brévin and Savenay</tspan>
      </text>
      <rect id="ITEM_6_BODY_FRAME" x="0" y="20" width="846" height="74" fill="none"/>
    </g>
  </g>
</svg>
