<?xml version='1.0' encoding='utf-8'?>
<svg xmlns="http://www.w3.org/2000/svg" width="1920" height="1080" viewBox="0 0 1920 1080" data-theme="dark">
  <style>
        @font-face {
            font-family: 'Inter';
            src: url('assets/fonts/Inter-Regular.ttf') format('truetype');
            font-weight: 400;
            font-style: normal;
            font-display: swap;
        }
        @font-face {
            font-family: 'Inter';
            src: url('assets/fonts/Inter-Bold.ttf') format('truetype');
            font-weight: 600;
            font-style: normal;
            font-display: swap;
        }
        @font-face {
            font-family: 'Inter';
            src: url('assets/fonts/Inter-Bold.ttf') format('truetype');
            font-weight: 800;
            font-style: normal;
            font-display: swap;
        }
        
:root {
    --background: #0f172a;
    --panel: #1e293b;
    --primary-text: #f1f5f9;
    --muted-text: #94a3b8;
    --inverse-text: #0f172a;
    --border: #334155;
    --shadow-color: #000000;
    --icon-pad-bg: #1e293b;
    --art-glow: #7dd3fc;
    --art-glow-opacity: 0.18;
    --art-sheen: #ffffff;
    --art-sheen-opacity: 0.18;
    --art-shadow: #000000;
    --art-shadow-opacity: 0.28;
    --art-muted-line: #64748b;
    --art-panel-tint: #1e293b;
    --font-family: 'Inter', 'Segoe UI', 'Kalam', Roboto, Helvetica, Arial, sans-serif;
    --radius-xl: 16px;
    --font-family-headline: 'Inter', 'Segoe UI', 'Kalam', Roboto, Helvetica, Arial, sans-serif;
    --font-family-body: 'Inter', 'Segoe UI', 'Kalam', Roboto, Helvetica, Arial, sans-serif;
    --font-heading: 'Inter', 'Segoe UI', 'Kalam', Roboto, Helvetica, Arial, sans-serif;
    --font-body: 'Inter', 'Segoe UI', 'Kalam', Roboto, Helvetica, Arial, sans-serif;
    --font-size-h1: 56px;
    --font-size-h2: 40px;
    --font-size-h3: 28px;
    --font-size-body: 24px;
    --font-size-caption: 18px;
    --secondary-text: var(--muted-text);
    --panel-border: var(--border);
    --font-weight-normal: 400;
    --font-weight-medium: 500;
    --font-weight-semibold: 600;
    --font-weight-bold: 700;
    --spacing-gutter-pct: 0.07;
    --spacing-top-pct: 0.15;
    --spacing-bottom-pct: 0.07;
    --spacing-title-y-pct: 0.055;
    --accent-1: #22d3ee;
    --accent-2: #f472b6;
    --accent-3: #facc15;
    --accent-4: #a3e635;
    --accent-5: #fb923c;
    --accent-6: #c084fc;
}
:root[data-theme="dark"] {
    --background: #0f172a;
    --panel: #1e293b;
    --primary-text: #f1f5f9;
    --muted-text: #94a3b8;
    --inverse-text: #0f172a;
    --border: #334155;
    --shadow-color: #000000;
    --icon-pad-bg: #1e293b;
    --art-glow: #7dd3fc;
    --art-glow-opacity: 0.18;
    --art-sheen: #ffffff;
    --art-sheen-opacity: 0.18;
    --art-shadow: #000000;
    --art-shadow-opacity: 0.28;
    --art-muted-line: #64748b;
    --art-panel-tint: #1e293b;
    --accent-1: #22d3ee;
    --accent-2: #f472b6;
    --accent-3: #facc15;
    --accent-4: #a3e635;
    --accent-5: #fb923c;
    --accent-6: #c084fc;
}
:root[data-theme="light"] {
    --background: #f8fafc;
    --panel: #ffffff;
    --primary-text: #0f172a;
    --muted-text: #64748b;
    --inverse-text: #ffffff;
    --border: #e2e8f0;
    --shadow-color: #000000;
    --icon-pad-bg: #1e293b;
    --art-glow: #0891b2;
    --art-glow-opacity: 0.10;
    --art-sheen: #ffffff;
    --art-sheen-opacity: 0.34;
    --art-shadow: #0f172a;
    --art-shadow-opacity: 0.14;
    --art-muted-line: #94a3b8;
    --art-panel-tint: #f1f5f9;
    --accent-1: #0891b2;
    --accent-2: #db2777;
    --accent-3: #ca8a04;
    --accent-4: #65a30d;
    --accent-5: #ea580c;
    --accent-6: #9333ea;
}</style>
  <rect x="0" y="0" width="1.92E+3" height="1.08E+3" fill="#252a34" stroke="none" id="programmatic_background"/>
  <line id="HEADER_DECOR" x1="960.0" x2="1080.0" y1="85.0" y2="85.0" stroke="var(--accent-1)" stroke-width="6" stroke-linecap="round"/>
  <defs>
    <pattern id="svgd8bf3870-napkin-hatch" patternUnits="userSpaceOnUse" width="12" height="12">
      <path d="M -3 12 L 12 -3 M 0 15 L 15 0" fill="none" stroke="var(--primary-text)" stroke-width="1" stroke-opacity="0.05"/>
    </pattern>
    <filter id="svgd8bf3870-shadow" x="-30%" y="-30%" width="160%" height="160%">
      <feDropShadow dx="0" dy="2" stdDeviation="3" flood-color="#000000" flood-opacity="0.08"/>
      <feDropShadow dx="0" dy="6" stdDeviation="10" flood-color="#000000" flood-opacity="0.12"/>
    </filter>
    <marker id="svgd8bf3870-arrowhead" markerWidth="10" markerHeight="10" refX="9" refY="5" orient="auto">
      <path d="M 0 0 L 10 5 L 0 10 Z" fill="var(--accent-1)"/>
    </marker>
    <filter id="svgd8bf3870-text-glow" x="-20%" y="-20%" width="140%" height="140%">
      <feDropShadow dx="0" dy="0" stdDeviation="2" flood-color="#000000" flood-opacity="0.4"/>
    </filter>
    <radialGradient id="svgd8bf3870-universal-edge-vignette" cx="50%" cy="50%" r="72%">
      <stop offset="0%" stop-color="var(--background)" stop-opacity="0"/>
      <stop offset="72%" stop-color="var(--background)" stop-opacity="0.12"/>
      <stop offset="100%" stop-color="var(--primary-text)" stop-opacity="0.08"/>
    </radialGradient>
    <linearGradient id="svgd8bf3870-universal-surface-sheen" x1="0%" y1="0%" x2="100%" y2="100%">
      <stop offset="0%" stop-color="var(--art-sheen)" stop-opacity="var(--art-sheen-opacity)"/>
      <stop offset="46%" stop-color="var(--art-sheen)" stop-opacity="0.035"/>
      <stop offset="100%" stop-color="var(--art-panel-tint)" stop-opacity="0.14"/>
    </linearGradient>
    <radialGradient id="svgd8bf3870-universal-icon-aura" cx="50%" cy="42%" r="64%">
      <stop offset="0%" stop-color="var(--art-glow)" stop-opacity="var(--art-glow-opacity)"/>
      <stop offset="100%" stop-color="var(--background)" stop-opacity="0"/>
    </radialGradient>
    <linearGradient id="svgd8bf3870-card-panel-sheen" x1="0%" y1="0%" x2="100%" y2="100%">
      <stop offset="0%" stop-color="var(--inverse-text)" stop-opacity="0.20"/>
      <stop offset="48%" stop-color="var(--inverse-text)" stop-opacity="0.04"/>
      <stop offset="100%" stop-color="var(--background)" stop-opacity="0.16"/>
    </linearGradient>
    <radialGradient id="svgd8bf3870-card-icon-glow" cx="50%" cy="35%" r="62%">
      <stop offset="0%" stop-color="var(--inverse-text)" stop-opacity="0.22"/>
      <stop offset="100%" stop-color="var(--background)" stop-opacity="0"/>
    </radialGradient>
  </defs>
  <rect width="100%" height="100%" fill="var(--background)" id="CANVAS_BG"/>
  <rect width="100%" height="100%" fill="url(#svgd8bf3870-napkin-hatch)"/>
  <rect id="UNIVERSAL_EDGE_VIGNETTE" width="100%" height="100%" fill="url(#svgd8bf3870-universal-edge-vignette)" opacity="0.62"/>
  <text id="TITLE" x="960.0" y="59" font-size="48" font-weight="700" fill="#f1f5f9" text-anchor="middle" style="font-size: 60px; font-family: Inter, Segoe UI, Kalam, Roboto, Helvetica, Arial, sans-serif; font-weight: 700; letter-spacing:-1.2px;" data-final-font-size="60">
    <tspan x="960.0" dy="68.00px">Rejected Explanations for Lac Chauvet</tspan>
  </text>
  <rect id="TITLE_FRAME" x="134" y="25" width="1652" height="70" fill="none"/>
  <g id="DIAGRAM_MAIN">
    <rect id="ITEM_1_BG" x="485" y="170" width="480" height="410" rx="16" fill="var(--accent-3)" stroke="var(--accent-1)" stroke-width="2" filter="url(#svgd8bf3870-shadow)" fill-opacity="0.4"/>
    <rect x="485" y="170" width="480" height="410" rx="16" fill="url(#svgd8bf3870-card-panel-sheen)" opacity="0.88"/>
    <rect x="485" y="186" width="460" height="12" fill="var(--accent-1)"/>
    <rect id="ITEM_1_HEAD_FRAME" x="500" y="288" width="450" height="96" fill="none"/>
    <rect id="ITEM_1_BODY_FRAME" x="500" y="382" width="450" height="168" fill="none"/>
    <circle id="ITEM_1_PAD" cx="715" cy="231" r="55" fill="var(--icon-pad-bg)" stroke="var(--primary-text)" opacity="0.9" fill-opacity="0.9" stroke-width="2"/>
    <circle cx="715" cy="231" r="44" fill="none" stroke="var(--accent-1)" stroke-width="3" stroke-dasharray="6 4"/>
    <circle id="ITEM_1_BADGE" cx="715" cy="231" r="43" fill="var(--accent-1)" stroke="var(--background)" stroke-width="4" fill-opacity="0.35" opacity="0.85" stroke-opacity="0.75"/>
    <g id="ITEM_1_ICON" transform="translate(682, 198)" data-icon-size="66">
      <g transform="translate(-11.643902439024385,-12.690243902439022) scale(3.7203252032520324)" vector-effect="non-scaling-stroke" stroke-width="2.50" stroke-linecap="round" stroke-linejoin="round" stroke-opacity="1.0">
        <path d="M4 9.5C4 14.0714 9.71429 17.5 9.71429 17.5H14.2857C14.2857 17.5 20 14.0714 20 9.5C20 4.92857 16.4183 1.5 12 1.5C7.58172 1.5 4 4.92857 4 9.5Z" stroke="#ffffff" vector-effect="non-scaling-stroke" fill="none"/>
        <path d="M8.99999 2C5.99996 8 10 17.5 10 17.5" stroke="#ffffff" vector-effect="non-scaling-stroke" fill="none"/>
        <path d="M14.8843 2C17.8843 8 13.8843 17.5 13.8843 17.5" stroke="#ffffff" vector-effect="non-scaling-stroke" fill="none"/>
        <path d="M13.4 23H10.6C10.2686 23 10 22.7314 10 22.4V20.6C10 20.2686 10.2686 20 10.6 20H13.4C13.7314 20 14 20.2686 14 20.6V22.4C14 22.7314 13.7314 23 13.4 23Z" stroke="#ffffff" vector-effect="non-scaling-stroke" fill="none"/>
      </g>
    </g>
    <text id="ITEM_1_HEAD" x="725.0" y="288.0" font-weight="700" font-size="26" fill="var(--primary-text)" text-anchor="middle" data-bg-id="ITEM_1_BG" fill-opacity="1.0" stroke="none" style="font-size: 30px; font-family: Inter, Segoe UI, Kalam, Roboto, Helvetica, Arial, sans-serif; font-weight: 700; letter-spacing:-0.4px;" data-final-font-size="30">
      <tspan x="725.0" dy="56.25px">Weather Balloon</tspan>
    </text>
    <text id="ITEM_1_BODY" x="725.0" y="382.0" font-size="21" fill="var(--primary-text)" text-anchor="middle" data-bg-id="ITEM_1_BG" style="font-size: 26px; font-family: Inter, Segoe UI, Kalam, Roboto, Helvetica, Arial, sans-serif; font-weight: 400;" data-final-font-size="26">
      <tspan x="725.0" dy="36.46px">Dismissed due to visual</tspan>
      <tspan x="725.0" dy="29.90px">dissimilarity and wind</tspan>
      <tspan x="725.0" dy="29.90px">direction issues</tspan>
    </text>
    <rect id="ITEM_2_BG" x="975" y="170" width="480" height="410" rx="16" fill="var(--accent-4)" stroke="var(--accent-2)" stroke-width="2" filter="url(#svgd8bf3870-shadow)" fill-opacity="0.4"/>
    <rect x="975" y="170" width="480" height="410" rx="16" fill="url(#svgd8bf3870-card-panel-sheen)" opacity="0.88"/>
    <rect x="975" y="186" width="460" height="12" fill="var(--accent-2)"/>
    <rect id="ITEM_2_HEAD_FRAME" x="990" y="288" width="450" height="96" fill="none"/>
    <rect id="ITEM_2_BODY_FRAME" x="990" y="382" width="450" height="168" fill="none"/>
    <circle id="ITEM_2_PAD" cx="1205" cy="231" r="55" fill="var(--icon-pad-bg)" stroke="var(--primary-text)" opacity="0.9" fill-opacity="0.9" stroke-width="2"/>
    <circle cx="1205" cy="231" r="44" fill="none" stroke="var(--accent-2)" stroke-width="3" stroke-dasharray="6 4"/>
    <circle id="ITEM_2_BADGE" cx="1205" cy="231" r="43" fill="var(--accent-2)" stroke="var(--background)" stroke-width="4" fill-opacity="0.35" opacity="0.85" stroke-opacity="0.75"/>
    <g id="ITEM_2_ICON" transform="translate(1172, 198)" data-icon-size="66">
      <g transform="translate(-12.02727272727273,-12.027272727272726) scale(0.7090909090909091)">
        <path fill="#1E86FF" d="m14.44 69.4l-8.75 8.22s-.02 9.43 6.27 17.3c5.62 7.03 28.24 19.84 66.7 4.06c45.66-18.73 43.92-49.14 42.06-55.72c-2.48-8.76-6.68-13.58-17.12-17.12S14.44 69.4 14.44 69.4"/>
        <path fill="#00C1EC" d="M44.63 30.63C15.57 43.63.27 70.14 7.36 83.93c7.85 15.28 40.28 19.4 72.12 4.66c32.61-15.1 43.61-42.49 35.22-54.61s-38.06-17.67-70.07-3.35"/>
        <path fill="#6FE8FD" d="M11.91 70.28c-1.92.64-2.22 8.18 1.97 13.55c5.33 6.83 17.13 8.57 17.71 5.9c.6-2.75-7.16-2.53-13.2-8.7c-4.24-4.33-5.09-11.21-6.48-10.75m29.75 20.99c1 2.49 11.83.43 16.44-.58c7.41-1.62 17.95-6.25 26.17-11.23s15.28-12.27 18.06-15.75c2.78-3.47 4.05-6.95 2.55-7.76c-1.51-.81-4.5 4.61-10.65 10.19c-9.96 9.03-24.31 16.9-37.74 20.15c-6.95 1.67-15.76 2.66-14.83 4.98m65.4-57.17c-1.75.95.58 2.84.65 5.89c.05 2.13-1.38 5.82.51 6.18s3.73-2.65 3.78-6.84c.04-2.76-2.94-6.31-4.94-5.23"/>
        <path fill="#DFEEF1" d="M44.31 79.85c-11.37 0-19.58-4.07-22.19-10.11c-3.99-9.2 4.17-23.95 26.33-33.95c21.75-9.81 41.69-7.23 47.08 1.71c2.03 3.36 2.54 8.08.99 12.79c-3.18 9.67-13.36 18.3-27.48 24.16c-9.11 3.78-17.55 5.4-24.73 5.4m5.23-41.46C34.8 45.24 20.23 58.34 24.69 68.63c3.26 7.53 19.9 12.7 43.05 3.09c18.99-7.88 24.48-18.36 25.86-22.57c1.29-3.92 1.18-7.22-.41-9.87c-4.04-6.7-21.7-10.79-43.65-.89"/>
        <path fill="#C9C9C9" d="M34.06 29.45c.82 1.56 3.58-1.02 8.28-3.33s14.51-6.49 27.23-8.45s24.58-.26 28.08.43c3.5.68 5.46.77 5.72 0s-.6-2.05-5.72-3.41s-17.92-3.16-28.76-1.45s-21.37 5.53-27.6 9.54s-7.99 5.21-7.23 6.67m18.53-18.87c.3 1.97 9.22-1.88 16.9-2.73c7.65-.85 15.44-.25 16.98-.17c1.54.09 2.48-.17 2.65-.94S84.9 2.52 69.49 3.93c-12.94 1.17-17.08 5.52-16.9 6.65M15.12 112.66c-.18.71 2.62 2.06 7.6 3.07c5.04 1.02 17.49 1.88 29.45.17c12.75-1.82 22.86-6.29 25.17-7.57c2.3-1.28 4.88-3.78 4.11-4.63s-5.89 2.13-10.16 3.33s-12.72 3.93-23.64 5.12s-21.34.51-24.75.43c-3.43-.09-7.53-.94-7.78.08m35.25 10.08c.25 1.43 8.59 2.56 21.08-1.86c12.91-4.57 16.47-10.03 15.96-10.86c-.94-1.54-7.62 3.95-17.75 7.17c-12.64 4.01-19.55 4.09-19.29 5.55"/>
      </g>
    </g>
    <text id="ITEM_2_HEAD" x="1215.0" y="288.0" font-weight="700" font-size="26" fill="var(--primary-text)" text-anchor="middle" data-bg-id="ITEM_2_BG" fill-opacity="1.0" stroke="none" style="font-size: 30px; font-family: Inter, Segoe UI, Kalam, Roboto, Helvetica, Arial, sans-serif; font-weight: 700; letter-spacing:-0.4px;" data-final-font-size="30">
      <tspan x="1215.0" dy="56.25px">Frisbee Disc</tspan>
    </text>
    <text id="ITEM_2_BODY" x="1215.0" y="382.0" font-size="21" fill="var(--primary-text)" text-anchor="middle" data-bg-id="ITEM_2_BG" style="font-size: 26px; font-family: Inter, Segoe UI, Kalam, Roboto, Helvetica, Arial, sans-serif; font-weight: 400;" data-final-font-size="26">
      <tspan x="1215.0" dy="42.44px">Historically unlikely as it was not</tspan>
      <tspan x="1215.0" dy="29.90px">widely available in 1952 France</tspan>
    </text>
    <rect id="ITEM_3_BG" x="485" y="600" width="480" height="410" rx="16" fill="var(--accent-5)" stroke="var(--accent-3)" stroke-width="2" filter="url(#svgd8bf3870-shadow)" fill-opacity="0.4"/>
    <rect x="485" y="600" width="480" height="410" rx="16" fill="url(#svgd8bf3870-card-panel-sheen)" opacity="0.88"/>
    <rect x="485" y="616" width="460" height="12" fill="var(--accent-3)"/>
    <rect id="ITEM_3_HEAD_FRAME" x="500" y="718" width="450" height="96" fill="none"/>
    <rect id="ITEM_3_BODY_FRAME" x="500" y="812" width="450" height="168" fill="none"/>
    <circle id="ITEM_3_PAD" cx="715" cy="661" r="55" fill="var(--icon-pad-bg)" stroke="var(--primary-text)" opacity="0.9" fill-opacity="0.9" stroke-width="2"/>
    <circle cx="715" cy="661" r="44" fill="none" stroke="var(--accent-3)" stroke-width="3" stroke-dasharray="6 4"/>
    <circle id="ITEM_3_BADGE" cx="715" cy="661" r="43" fill="var(--accent-3)" stroke="var(--background)" stroke-width="4" fill-opacity="0.35" opacity="0.85" stroke-opacity="0.75"/>
    <g id="ITEM_3_ICON" transform="translate(682, 628)" data-icon-size="66">
      <g transform="translate(-19.799999999999997,-14.849999999999994) scale(0.4125)" vector-effect="non-scaling-stroke" stroke-width="2.50" stroke-linecap="round" stroke-linejoin="round" stroke-opacity="1.0">
        <path d="M32,128a96,96,0,0,1,192,0v56a16,16,0,0,1-25.48,12.88C182.53,185.26,159,176,128,176s-54.53,9.26-70.52,20.88A16,16,0,0,1,32,184Z" fill="none" stroke="#ffffff" vector-effect="non-scaling-stroke"/>
        <path d="M32,152a160,160,0,0,1,192,0" fill="none" stroke="#ffffff" vector-effect="non-scaling-stroke"/>
        <path d="M88.4,124.94C92.57,67.43,128,32,128,32s35.43,35.43,39.6,92.94" fill="none" stroke="#ffffff" vector-effect="non-scaling-stroke"/>
      </g>
    </g>
    <text id="ITEM_3_HEAD" x="725.0" y="718.0" font-weight="700" font-size="26" fill="var(--primary-text)" text-anchor="middle" data-bg-id="ITEM_3_BG" fill-opacity="1.0" stroke="none" style="font-size: 30px; font-family: Inter, Segoe UI, Kalam, Roboto, Helvetica, Arial, sans-serif; font-weight: 700; letter-spacing:-0.4px;" data-final-font-size="30">
      <tspan x="725.0" dy="56.25px">Cap or Hat</tspan>
    </text>
    <text id="ITEM_3_BODY" x="725.0" y="812.0" font-size="21" fill="var(--primary-text)" text-anchor="middle" data-bg-id="ITEM_3_BG" style="font-size: 26px; font-family: Inter, Segoe UI, Kalam, Roboto, Helvetica, Arial, sans-serif; font-weight: 400;" data-final-font-size="26">
      <tspan x="725.0" dy="42.44px">Could mimic shape but fails to</tspan>
      <tspan x="725.0" dy="29.90px">explain repeated trajectory shots</tspan>
    </text>
    <rect id="ITEM_4_BG" x="975" y="600" width="480" height="410" rx="16" fill="var(--accent-6)" stroke="var(--accent-4)" stroke-width="2" filter="url(#svgd8bf3870-shadow)" fill-opacity="0.4"/>
    <rect x="975" y="600" width="480" height="410" rx="16" fill="url(#svgd8bf3870-card-panel-sheen)" opacity="0.88"/>
    <rect x="975" y="616" width="460" height="12" fill="var(--accent-4)"/>
    <rect id="ITEM_4_HEAD_FRAME" x="990" y="718" width="450" height="96" fill="none"/>
    <rect id="ITEM_4_BODY_FRAME" x="990" y="812" width="450" height="168" fill="none"/>
    <circle id="ITEM_4_PAD" cx="1205" cy="661" r="55" fill="var(--icon-pad-bg)" stroke="var(--primary-text)" opacity="0.9" fill-opacity="0.9" stroke-width="2"/>
    <circle cx="1205" cy="661" r="44" fill="none" stroke="var(--accent-4)" stroke-width="3" stroke-dasharray="6 4"/>
    <circle id="ITEM_4_BADGE" cx="1205" cy="661" r="43" fill="var(--accent-4)" stroke="var(--background)" stroke-width="4" fill-opacity="0.35" opacity="0.85" stroke-opacity="0.75"/>
    <g id="ITEM_4_ICON" transform="translate(1172, 628)" data-icon-size="66">
      <g transform="translate(-16.02857142857143,-16.028571428571425) scale(3.064285714285714)">
        <path d="M17.17 6C18.2746 6 19.17 5.10457 19.17 4C19.17 2.89543 18.2746 2 17.17 2C16.0655 2 15.17 2.89543 15.17 4C15.17 5.10457 16.0655 6 17.17 6Z" fill="#9B9B9B"/>
        <path d="M19.17 8C20.2746 8 21.17 7.10457 21.17 6C21.17 4.89543 20.2746 4 19.17 4C18.0655 4 17.17 4.89543 17.17 6C17.17 7.10457 18.0655 8 19.17 8Z" fill="#D3D3D3"/>
        <path d="M19.85 6H16.17C16.17 4.89543 15.2746 4 14.17 4C13.0655 4 12.17 4.89543 12.17 6H11C9.89543 6 9 6.89543 9 8C9 9.10457 9.89543 10 11 10H12.5325C12.8286 10 13 10.1966 13 10.4675V13H19V10.4675C19 10.201 19.2079 10 19.4675 10H19.85H22C23.1046 10 24 9.10457 24 8C24 6.89543 23.1046 6 22 6H19.85Z" fill="#E6E6E6"/>
        <path d="M19.6133 14.3672L10.1329 14.9922L4.1424 27.8672C3.67976 28.8616 4.40571 30 5.5024 30H25.5027C25.5027 30 20.5839 15.9556 19.6133 14.3672Z" fill="#321B41"/>
        <path d="M25.1111 30L22.6241 23.6048C22.2478 22.6373 21.3162 22 20.2781 22C19.5062 22 18.812 21.53 18.5253 20.8133L17 17V14.6183L21.6133 14.3672L27.8639 27.8699C28.3241 28.864 27.5981 30 26.5027 30H25.1111Z" fill="#533566"/>
        <path d="M10 16C10 16 10 15.6598 10 15.4437C10 15.2276 10.2545 14.7023 10.2545 14.7023C10.2545 14.7023 11.0249 13.0353 11.2771 12.4399C11.4167 12.1104 11.6608 11.543 12.0406 11.2282C12.3468 10.9743 12.7723 10.9341 13.0632 10.9341C13.4518 10.9341 16.5575 10.9575 19 10.9765C19.6567 10.9816 19.9987 11.1403 20.422 11.7861C21.0227 13.078 21.6233 14.37 21.6233 14.37C21.6233 14.37 22 15.2766 22 15.7526V18C22 18.5523 21.5523 19 21 19C20.4477 19 20 18.5523 20 18C20 17.4477 19.5523 17 19 17C18.4477 17 18 17.4477 18 18V20C18 20.5523 17.5523 21 17 21C16.4477 21 16 20.5523 16 20V19C16 18.4477 15.5523 18 15 18C14.4477 18 14 18.4477 14 19V26C14 26.5523 13.5523 27 13 27C12.4477 27 12 26.5523 12 26C12 26 12 18.6435 12 18C12 17.3565 11.6129 17 11 17C10.3871 17 10 16.5523 10 16Z" fill="#FF6723"/>
        <path d="M16 10.6001C17.6569 10.6001 19 9.25695 19 7.6001C19 5.94324 17.6569 4.6001 16 4.6001C14.3431 4.6001 13 5.94324 13 7.6001C13 9.25695 14.3431 10.6001 16 10.6001Z" fill="#F4F4F4"/>
      </g>
    </g>
    <text id="ITEM_4_HEAD" x="1215.0" y="718.0" font-weight="700" font-size="26" fill="var(--primary-text)" text-anchor="middle" data-bg-id="ITEM_4_BG" fill-opacity="1.0" stroke="none" style="font-size: 30px; font-family: Inter, Segoe UI, Kalam, Roboto, Helvetica, Arial, sans-serif; font-weight: 700; letter-spacing:-0.4px;" data-final-font-size="30">
      <tspan x="1215.0" dy="56.25px">City Lights</tspan>
    </text>
    <text id="ITEM_4_BODY" x="1215.0" y="812.0" font-size="21" fill="var(--primary-text)" text-anchor="middle" data-bg-id="ITEM_4_BG" style="font-size: 26px; font-family: Inter, Segoe UI, Kalam, Roboto, Helvetica, Arial, sans-serif; font-weight: 400;" data-final-font-size="26">
      <tspan x="1215.0" dy="42.44px">Ruled out by the isolated volcanic</tspan>
      <tspan x="1215.0" dy="29.90px">lake setting and daylight photos</tspan>
    </text>
  </g>
</svg>
